<?xml version="1.0" standalone="no"?><!DOCTYPE svg PUBLIC "-//W3C//DTD SVG 1.1//EN" "http://www.w3.org/Graphics/SVG/1.1/DTD/svg11.dtd"><svg t="1616247684624" class="icon" viewBox="0 0 1024 1024" version="1.1" xmlns="http://www.w3.org/2000/svg" p-id="5773" xmlns:xlink="http://www.w3.org/1999/xlink" width="200" height="200"><defs><style type="text/css"></style></defs><path d="M749.7 885.4H276.5c-26.9 0-48.7-21.9-48.7-48.7V555.8c0-13.8 11.2-25 25-25s25 11.2 25 25v279.5h470.6V555.8c0-13.8 11.2-25 25-25s25 11.2 25 25v280.8c0 26.9-21.9 48.7-48.7 48.8z" p-id="5774" fill="#8a8a8a"></path><path d="M755.8 221.4c13.6 0 26.7 3.2 37.4 42.8l50.6 169.3c-1.6 51.2-43.8 92.4-95.4 92.4-37 0-69.9-20.7-86-54-9.6-19.9-22.5-24.1-31.6-24.1-9.1 0-22 4.2-31.6 24.1-16.1 33.3-49.1 53.9-86 53.9-34.5-0.1-66.3-18.7-83.3-48.7-10.9-19.5-24.5-23.5-34-23.5-9.6 0-23.5 4.3-35.3 24.6-17.1 29.4-48.6 47.6-82.7 47.7-51.7 0-93.9-41.2-95.4-92.5L231.2 263c6.5-27.6 19-41.6 37-41.6h487.6m0-50H268.2c-23.2 0-44.5 9.7-60.2 27.2-11.7 13.1-20 30-25.2 51.7l-48.5 169.4-2.1 7.5 0.2 7.8c1.2 37.9 16.8 73.3 44.1 99.8 27.3 26.6 63.3 41.2 101.3 41.2h0.2c25.4-0.1 50.5-6.8 72.5-19.5 17.7-10.2 33-24 45-40.4 27.2 37.2 70.8 59.8 117.5 59.9 27.5 0 54.3-7.7 77.4-22.1 15.7-9.9 29.4-22.7 40.3-37.6 10.9 15 24.5 27.8 40.2 37.6 23.1 14.5 49.9 22.1 77.4 22.1 38 0 74-14.6 101.3-41.1 27.2-26.4 42.9-61.8 44.1-99.7l0.3-8.1-2.3-7.8-50.4-168.7c-7.5-27.5-17.7-46.4-32-59.5-21.6-19.7-45.6-19.7-53.5-19.7z" p-id="5775" fill="#8a8a8a"></path></svg>